<svg xmlns="http://www.w3.org/2000/svg" enable-background="new 0 0 80 80" viewBox="0 0 80 80" id="Billing"><path fill="#4d7282" d="M68.8,24.4v46.83c0,1.81-1.46,3.27-3.27,3.27H28.02c-1.81,0-3.27-1.46-3.27-3.27V24.4
					c0-1.81,1.46-3.27,3.27-3.27h37.51C67.34,21.14,68.8,22.59,68.8,24.4z" class="color476168 svgShape"></path><path fill="#4d7282" d="M68.8,24.4v46.83c0,1.81-1.46,3.27-3.27,3.27H28.02c-1.81,0-3.27-1.46-3.27-3.27V24.4
					c0-1.81,1.46-3.27,3.27-3.27h37.51C67.34,21.14,68.8,22.59,68.8,24.4z" class="color476168 svgShape"></path><path fill="#ffffff" d="M31.14,74.5h-3.12c-1.81,0-3.27-1.46-3.27-3.27V24.4c0-1.81,1.46-3.27,3.27-3.27h3.12
					c-1.82,0-3.27,1.46-3.27,3.27v46.83C27.86,73.04,29.32,74.5,31.14,74.5z" opacity=".15" class="colorffffff svgShape"></path><path d="M68.8,24.4v46.83c0,1.81-1.46,3.27-3.27,3.27h-3.11c1.81,0,3.27-1.46,3.27-3.27V24.4c0-1.81-1.46-3.27-3.27-3.27h3.11
					C67.35,21.14,68.8,22.59,68.8,24.4z" opacity=".15" fill="#000000" class="color000000 svgShape"></path><rect width="35.34" height="12" x="29.11" y="30.07" fill="#75c7ea" class="color75d0ea svgShape"></rect><polygon fill="#ffffff" points="29.11 42.07 64.45 30.07 64.45 42.07" opacity=".25" class="colorffffff svgShape"></polygon><rect width="30.76" height="2.66" x="31.4" y="24.71" fill="#273e48" class="color274148 svgShape"></rect><polygon fill="#ffffff" points="60.48 5.5 60.48 27.37 33.08 27.37 33.08 5.5 35.36 7.79 37.64 5.5 39.93 7.79 42.22 5.5 44.49 7.79 46.78 5.5 49.07 7.79 51.35 5.5 53.63 7.79 55.92 5.5 58.21 7.79" class="colorffffff svgShape"></polygon><rect width="27.41" height="1.38" x="33.08" y="25.99" fill="#e5e5e5" class="colore5e5e5 svgShape"></rect><g opacity=".15" fill="#000000" class="color000000 svgShape"><rect width="6.5" height="6.5" x="29.79" y="46.73" fill="#000000" class="color000000 svgShape"></rect><rect width="6.5" height="6.5" x="39.4" y="46.73" fill="#000000" class="color000000 svgShape"></rect><rect width="6.5" height="6.5" x="49.01" y="46.73" fill="#000000" class="color000000 svgShape"></rect><rect width="6.5" height="6.5" x="58.62" y="46.73" fill="#000000" class="color000000 svgShape"></rect><rect width="6.5" height="6.5" x="29.79" y="56.1" fill="#000000" class="color000000 svgShape"></rect><rect width="6.5" height="6.5" x="39.4" y="56.1" fill="#000000" class="color000000 svgShape"></rect><rect width="6.5" height="6.5" x="49.01" y="56.1" fill="#000000" class="color000000 svgShape"></rect><rect width="6.5" height="6.5" x="58.62" y="56.1" fill="#000000" class="color000000 svgShape"></rect><g fill="#000000" class="color000000 svgShape"><rect width="6.5" height="6.5" x="29.79" y="65.47" fill="#000000" class="color000000 svgShape"></rect><rect width="6.5" height="6.5" x="39.4" y="65.47" fill="#000000" class="color000000 svgShape"></rect><rect width="6.5" height="6.5" x="49.01" y="65.47" fill="#000000" class="color000000 svgShape"></rect><rect width="6.5" height="6.5" x="58.62" y="65.47" fill="#000000" class="color000000 svgShape"></rect></g></g><rect width="6.5" height="6.5" x="29.11" y="46.05" fill="#e5e5e5" class="colore5e5e5 svgShape"></rect><rect width="6.5" height="6.5" x="38.72" y="46.05" fill="#e5e5e5" class="colore5e5e5 svgShape"></rect><rect width="6.5" height="6.5" x="48.34" y="46.05" fill="#e5e5e5" class="colore5e5e5 svgShape"></rect><rect width="6.5" height="6.5" x="57.95" y="46.05" fill="#67c8f2" class="colorf26768 svgShape"></rect><rect width="6.5" height="6.5" x="29.11" y="55.43" fill="#e5e5e5" class="colore5e5e5 svgShape"></rect><rect width="6.5" height="6.5" x="38.72" y="55.43" fill="#e5e5e5" class="colore5e5e5 svgShape"></rect><rect width="6.5" height="6.5" x="48.34" y="55.43" fill="#e5e5e5" class="colore5e5e5 svgShape"></rect><rect width="6.5" height="6.5" x="57.95" y="55.43" fill="#3198c4" class="coloracc431 svgShape"></rect><rect width="6.5" height="6.5" x="29.11" y="64.8" fill="#e5e5e5" class="colore5e5e5 svgShape"></rect><rect width="6.5" height="6.5" x="38.72" y="64.8" fill="#e5e5e5" class="colore5e5e5 svgShape"></rect><rect width="6.5" height="6.5" x="48.34" y="64.8" fill="#e5e5e5" class="colore5e5e5 svgShape"></rect><rect width="6.5" height="6.5" x="57.95" y="64.8" fill="#4bc2f5" class="colorf5bc4b svgShape"></rect><g fill="#000000" class="color000000 svgShape"><path fill="#408cad" d="M46.77,55.26v16.16c0,1.7-1.38,3.08-3.08,3.08H14.27c-1.7,0-3.08-1.38-3.08-3.08V55.26
					c0-1.7,1.38-3.08,3.08-3.08h29.42C45.39,52.18,46.77,53.56,46.77,55.26z" class="color40ad86 svgShape"></path><path fill="#ffffff" d="M15.98,74.5h-1.71c-1.7,0-3.08-1.38-3.08-3.08V55.26c0-1.7,1.38-3.08,3.08-3.08h1.71
					c-1.7,0-3.08,1.38-3.08,3.08v16.16C12.9,73.12,14.28,74.5,15.98,74.5z" opacity=".25" class="colorffffff svgShape"></path><path d="M46.77,55.26v16.16c0,1.7-1.38,3.08-3.08,3.08h-1.71c1.7,0,3.08-1.38,3.08-3.08V55.26c0-1.7-1.38-3.08-3.08-3.08h1.71
					C45.39,52.18,46.77,53.56,46.77,55.26z" opacity=".15" fill="#000000" class="color000000 svgShape"></path><path fill="#9cc6d8" d="M43.15,58.69v9.3c-1.6,0-2.89,1.29-2.89,2.89H17.71c0-1.6-1.29-2.89-2.89-2.89v-9.3
					c1.6,0,2.89-1.29,2.89-2.89h22.55C40.26,57.39,41.56,58.69,43.15,58.69z" class="color9cd8c6 svgShape"></path><path d="M43.15 58.69v9.3c-.27 0-.53.04-.77.11v-8.64c-1.59 0-2.89-1.3-2.89-2.89H17.6c.07-.24.11-.5.11-.77h22.55C40.26 57.39 41.56 58.69 43.15 58.69zM42.38 68.1v.66c-.6 0-1.15.18-1.61.5C41.14 68.7 41.71 68.28 42.38 68.1z" opacity=".15" fill="#000000" class="color000000 svgShape"></path><ellipse cx="28.98" cy="63.34" fill="#408cad" rx="3.61" ry="5.74" class="color40ad86 svgShape"></ellipse><path d="M32.6,63.34c0,3.17-1.62,5.74-3.61,5.74c-0.84,0-1.62-0.46-2.23-1.23c0.48,0.37,1.02,0.58,1.59,0.58
					c2,0,3.61-2.56,3.61-5.73c0-1.83-0.54-3.46-1.38-4.51C31.77,59.12,32.6,61.08,32.6,63.34z" opacity=".15" fill="#000000" class="color000000 svgShape"></path><circle cx="17.93" cy="63.34" r="1.35" fill="#408cad" class="color40ad86 svgShape"></circle><circle cx="40.03" cy="63.34" r="1.35" fill="#408cad" class="color40ad86 svgShape"></circle><path d="M19.28 63.34c0 .75-.61 1.35-1.35 1.35-.74 0-1.35-.6-1.35-1.35 0-.11.02-.23.04-.33.15.58.68 1.01 1.31 1.01.63 0 1.16-.43 1.31-1.01C19.27 63.11 19.28 63.22 19.28 63.34zM41.38 63.34c0 .75-.6 1.35-1.35 1.35-.74 0-1.35-.6-1.35-1.35 0-.11.02-.23.04-.33.15.58.68 1.01 1.31 1.01.63 0 1.16-.43 1.31-1.01C41.37 63.11 41.38 63.22 41.38 63.34z" opacity=".15" fill="#000000" class="color000000 svgShape"></path><path fill="#9cc6d8" d="M28.98,62.78c-0.42,0-0.76-0.34-0.76-0.76c0-0.42,0.34-0.76,0.76-0.76s0.76,0.34,0.76,0.76
						c0,0.31,0.25,0.56,0.56,0.56s0.56-0.25,0.56-0.56c0-0.84-0.56-1.56-1.32-1.8v-0.2c0-0.31-0.25-0.56-0.56-0.56
						c-0.31,0-0.56,0.25-0.56,0.56v0.2c-0.76,0.24-1.32,0.95-1.32,1.8c0,1.04,0.84,1.88,1.88,1.88c0.42,0,0.76,0.34,0.76,0.76
						c0,0.42-0.34,0.76-0.76,0.76s-0.76-0.34-0.76-0.76c0-0.31-0.25-0.56-0.56-0.56c-0.31,0-0.56,0.25-0.56,0.56
						c0,0.84,0.56,1.56,1.32,1.8v0.2c0,0.31,0.25,0.56,0.56,0.56c0.31,0,0.56-0.25,0.56-0.56v-0.2c0.76-0.24,1.32-0.95,1.32-1.8
						C30.87,63.62,30.02,62.78,28.98,62.78z" class="color9cd8c6 svgShape"></path><path fill="#ffffff" d="M28.2 64.5c-.05-.01-.1-.02-.16-.02-.31 0-.56.25-.56.56 0 .42.14.81.37 1.12-.45-.34-.75-.89-.75-1.5 0-.31.25-.56.56-.56C27.92 64.1 28.13 64.27 28.2 64.5zM27.1 62.02c0-.84.56-1.55 1.32-1.8v-.2c0-.31.25-.56.56-.56.25 0 .47.17.54.4-.05-.01-.1-.02-.16-.02-.31 0-.56.25-.56.56v.2c-.77.24-1.32.95-1.32 1.8 0 .42.14.81.38 1.13C27.4 63.18 27.1 62.64 27.1 62.02zM30.12 65.04c0 .42-.34.75-.76.75-.31 0-.57-.18-.69-.44.09.05.2.07.31.07.42 0 .76-.34.76-.76 0-.11-.02-.22-.07-.31C29.94 64.47 30.12 64.73 30.12 65.04z" opacity=".25" class="colorffffff svgShape"></path></g><g opacity=".15" fill="#000000" class="color000000 svgShape"><rect width="20.49" height="3.38" x="36.53" y="13.05" fill="#000000" class="color000000 svgShape"></rect></g><g opacity=".15" fill="#000000" class="color000000 svgShape"><rect width="20.49" height="3.38" x="36.53" y="19.44" fill="#000000" class="color000000 svgShape"></rect></g></svg>