<svg xmlns="http://www.w3.org/2000/svg" viewBox="0 0 100 100" id="CleanCar"><path d="M62 49c3.16 0 5.84 2.11 6.71 5H55.29c.87-2.89 3.55-5 6.71-5zM35 37c0 3.31-2.69 6-6 6-1.28 0-2.46-.4-3.44-1.09L20.91 54h30.28c.95-5.11 5.43-9 10.81-9s9.86 3.89 10.81 9h6.28l-6.98-18.15c-.89-2.3-3.14-3.85-5.6-3.85H41.65A5.99 5.99 0 0 1 36 36c-.55 0-1 .45-1 1zm56 29v14c0 1.1-.9 2-2 2H11c-1.1 0-2-.9-2-2V66c0-4.41 3.59-8 8-8h66c4.41 0 8 3.59 8 8zm-57.11 6.21-16-8c-.98-.49-2.18-.09-2.68.9-.49.98-.09 2.18.9 2.68l16 8a1.99 1.99 0 0 0 2.68-.9c.49-.98.09-2.18-.9-2.68zM59 74c0-1.1-.9-2-2-2H43c-1.1 0-2 .9-2 2s.9 2 2 2h14c1.1 0 2-.9 2-2zm25.79-8.89c-.5-.99-1.69-1.39-2.68-.9l-16 8c-.99.5-1.39 1.7-.9 2.68a1.99 1.99 0 0 0 2.68.9l16-8c.99-.5 1.39-1.7.9-2.68zM15 89c0 1.65 1.35 3 3 3s3-1.35 3-3v-3h-6v3zm64 0c0 1.65 1.35 3 3 3s3-1.35 3-3v-3h-6v3zM20 30c0-1.1.9-2 2-2 2.76 0 5-2.24 5-5 0-1.1.9-2 2-2s2 .9 2 2c0 2.76 2.24 5 5 5 1.1 0 2 .9 2 2s-.9 2-2 2c-2.76 0-5 2.24-5 5 0 1.1-.9 2-2 2s-2-.9-2-2c0-2.76-2.24-5-5-5-1.1 0-2-.9-2-2zm7.65 0c.5.4.95.85 1.35 1.35.4-.5.85-.95 1.35-1.35-.5-.4-.95-.85-1.35-1.35-.4.5-.85.95-1.35 1.35zM69 17c0-1.1.9-2 2-2 2.76 0 5-2.24 5-5 0-1.1.9-2 2-2s2 .9 2 2c0 2.76 2.24 5 5 5 1.1 0 2 .9 2 2s-.9 2-2 2c-2.76 0-5 2.24-5 5 0 1.1-.9 2-2 2s-2-.9-2-2c0-2.76-2.24-5-5-5-1.1 0-2-.9-2-2zm7.65 0c.5.4.95.85 1.35 1.35.4-.5.85-.95 1.35-1.35-.5-.4-.95-.85-1.35-1.35-.4.5-.85.95-1.35 1.35z" fill="#4d7282" class="color000000 svgShape"></path></svg>