<?xml version="1.0" encoding="UTF-8"?>
<!DOCTYPE svg PUBLIC "-//W3C//DTD SVG 1.1//EN" "http://www.w3.org/Graphics/SVG/1.1/DTD/svg11.dtd">
<!-- Creator: CorelDRAW X8 -->
<svg xmlns="http://www.w3.org/2000/svg" xml:space="preserve" width="7.71694in" height="1.9084in" version="1.1" style="shape-rendering:geometricPrecision; text-rendering:geometricPrecision; image-rendering:optimizeQuality; fill-rule:evenodd; clip-rule:evenodd"
viewBox="0 0 6717 1771"
 xmlns:xlink="http://www.w3.org/1999/xlink">
 <defs>
  <style type="text/css">
   <![CDATA[
    .str0 {stroke:#373435;stroke-width:13.8898;stroke-dasharray:69.448819 41.669291}
    .str1 {stroke:#FEFEFE;stroke-width:6.94488;stroke-linecap:round;stroke-linejoin:round;stroke-dasharray:13.889764 20.834646}
    .fil0 {fill:none}
    .fil2 {fill:#D2D3D5}
    .fil3 {fill:#ED3237}
    .fil5 {fill:#314C7C}
    .fil4 {fill:#ED3237;fill-rule:nonzero}
    .fil1 {fill:#314C7C;fill-rule:nonzero}
   ]]>
  </style>
    <clipPath id="id0">
     <path d="M3430 613c0,30 -10,75 -20,96l-3 0c-126,-25 -260,-12 -396,22 -11,-24 -22,-64 -25,-92 -6,-53 4,-92 26,-132 5,-9 7,-14 12,-21 126,-176 406,-90 406,127z"/>
    </clipPath>
 </defs>
 <g id="Layer_x0020_1">
  <metadata id="CorelCorpID_0Corel-Layer"/>
  <g id="_828776240">
   <polygon class="fil0" points="0,0 6717,0 6717,1771 0,1771 "/>
   <path class="fil1" d="M1063 1455l-1 -489 -114 0 -168 282 -172 -282 -114 0 0 489 128 0 0 -252 125 204 62 0 126 -211 1 259 127 0zm465 0l144 0 -217 -489 -136 0 -217 489 142 0 38 -95 207 0 39 95zm-205 -197l63 -157 63 157 -126 0zm717 197l161 0 -211 -272 200 -217 -152 0 -190 203 0 -203 -137 0 0 489 137 0 0 -122 52 -55 140 177zm334 -107l0 -89 217 0 0 -104 -217 0 0 -82 247 0 0 -107 -384 0 0 489 393 0 0 -107 -256 0z"/>
   <path class="fil1" d="M4562 1455l148 0 -105 -153c60,-30 95,-83 95,-155 0,-112 -84,-181 -217,-181l-224 0 0 135 176 0 0 -42 137 88 -137 87 0 -42 -176 0 0 263 139 0 0 -130 75 0 89 130z"/>
   <polygon class="fil1" points="5219,966 5085,966 4969,1160 4853,966 4707,966 4893,1278 4893,1455 5032,1455 5032,1280 "/>
   <path class="fil1" d="M5252 1455l232 0c162,0 273,-94 273,-244 0,-151 -111,-245 -273,-245l-232 0 0 489zm139 -110l0 -269 87 0c83,0 139,50 139,135 0,84 -56,134 -139,134l-87 0z"/>
   <polygon class="fil1" points="5967,1348 5967,1259 6185,1259 6185,1155 5967,1155 5967,1073 6214,1073 6214,966 5830,966 5830,1455 6223,1455 6223,1348 "/>
   <path class="fil2" d="M3208 991c45,0 82,10 82,23 0,12 -37,22 -82,22 -45,0 -82,-10 -82,-22 0,-13 37,-23 82,-23z"/>
   <path class="fil1" d="M3478 1113c-121,-15 -357,-62 -447,-132 -37,-28 -46,-72 -7,-103 11,-8 32,-25 46,-28 5,8 10,14 15,23 11,19 35,49 48,67 8,10 10,13 18,21l18 20c13,13 24,25 38,37 29,-20 88,-95 110,-127l21 -32c8,-12 30,-50 40,-72 -87,-9 -263,29 -322,45l0 0c-26,9 -51,20 -74,31 -18,10 -35,18 -51,31 -192,159 475,219 547,228l0 -9z"/>
   <path class="fil3" d="M3473 1455l-1 -324c-35,-4 -70,-8 -106,-12 -30,-4 -61,-8 -92,-13l-84 142 -110 -179c-66,-18 -143,-44 -176,-81l0 467 128 0 0 -252 125 204 61 0 126 -211 2 259 127 0zm-1 -353l0 -136 -114 0 -63 104c66,15 130,26 177,32z"/>
   <polygon class="fil4" points="4021,966 3886,966 3770,1160 3654,966 3508,966 3695,1278 3695,1455 3833,1455 3833,1280 "/>
   <path class="fil5" d="M3430 613c0,30 -10,75 -20,96l-3 0c-126,-25 -260,-12 -396,22 -11,-24 -22,-64 -25,-92 -6,-53 4,-92 26,-132 5,-9 7,-14 12,-21 126,-176 406,-90 406,127z"/>
   <g style="clip-path:url(#id0)">
    <g>
     <path id="1" class="fil3" d="M3297 714c-8,1 -16,2 -23,-1 -10,-4 -3,-5 -18,-4l-111 4c-8,2 -3,8 -29,7l0 7 -33 14 -15 4c9,-4 17,-7 23,-8l-10 0c-2,-4 -1,-11 -1,-17l-1 -9 -1 -32 0 -8c0,-7 0,-14 -1,-21 0,-9 0,-11 3,-18 4,-3 5,-4 7,-8 4,-3 12,-14 15,-19 -37,-1 -30,-23 7,-19l5 -11 4 -7c14,-18 3,-17 32,-24 28,-7 75,-9 103,-3 5,1 6,2 12,3 12,2 11,10 20,19l3 5 7 12c13,-2 32,-5 32,12 -6,5 -12,6 -23,7 2,5 12,15 17,19l5 5c4,8 5,7 5,19 0,6 1,14 0,20l1 10 1 32 0 8 1 16 -8 2c4,1 8,3 12,4l0 0 -44 -11 -10 -2c4,0 9,1 13,2l0 -9zm-207 -67c-1,9 8,12 17,14 7,1 23,1 26,-5 8,-13 -29,-19 -43,-9zm221 -10c-9,-2 -20,-1 -28,3 -10,4 -14,13 0,16 20,3 52,-13 28,-19zm-16 -39c-3,-12 -21,-41 -28,-43 -7,-2 -53,4 -65,4 -12,0 -60,-3 -67,1 -4,2 -25,35 -23,43 30,0 62,3 92,2 29,0 61,-5 91,-7z"/>
    </g>
   </g>
   <path class="fil0" d="M3430 613c0,30 -10,75 -20,96l-3 0c-126,-25 -260,-12 -396,22 -11,-24 -22,-64 -25,-92 -6,-53 4,-92 26,-132 5,-9 7,-14 12,-21 126,-176 406,-90 406,127z"/>
   <g>
    <path class="fil0 str0" d="M3022 792c117,-46 254,-68 389,-47"/>
   </g>
   <path class="fil0 str1" d="M3024 862c-190,80 27,184 107,193"/>
  </g>
 </g>
</svg>
