<svg xmlns="http://www.w3.org/2000/svg" viewBox="0 0 64 64" id="Badge"><polygon fill="none" stroke="#4d7282" stroke-linecap="round" stroke-linejoin="round" stroke-width="2" points="19.98 31.85 19.87 34.02 19.87 31.84 19.98 31.85" class="colorStroke000000 svgStroke"></polygon><polygon fill="none" stroke="#4d7282" stroke-linecap="round" stroke-linejoin="round" stroke-width="2" points="44.13 31.84 44.13 34.02 44.02 31.85 44.13 31.84" class="colorStroke000000 svgStroke"></polygon><polygon fill="none" stroke="#4d7282" stroke-linecap="round" stroke-linejoin="round" stroke-width="2" points="40.6 34.73 44.13 35.39 44.13 60 32 51.99 19.87 60 19.87 35.39 23.4 34.73 24.26 38.18 27.52 36.56 29.35 39.63 32 37.18 34.65 39.63 36.48 36.56 39.74 38.19 40.6 34.73" class="colorStroke000000 svgStroke"></polygon><polygon fill="none" stroke="#4d7282" stroke-linecap="round" stroke-linejoin="round" stroke-width="2" points="49.88 26.84 46.47 28.16 47.67 31.52 44.13 31.84 44.02 31.85 44.13 34.02 44.13 35.39 40.6 34.73 39.74 38.19 36.48 36.56 34.65 39.63 32 37.18 29.35 39.63 27.52 36.56 24.26 38.18 23.4 34.73 19.87 35.39 19.87 34.02 19.98 31.85 19.87 31.84 16.33 31.52 17.53 28.16 14.12 26.84 16.25 23.95 13.37 21.75 16.25 19.56 14.12 16.66 17.53 15.34 16.33 11.99 19.98 11.65 19.8 8.1 23.4 8.77 24.26 5.32 27.52 6.95 29.35 3.87 32 6.33 34.65 3.87 36.48 6.95 39.74 5.32 40.6 8.77 44.2 8.1 44.02 11.65 47.67 11.99 46.47 15.34 49.88 16.66 47.75 19.56 50.63 21.75 47.75 23.95 49.88 26.84" class="colorStroke000000 svgStroke"></polygon><polygon fill="none" stroke="#4d7282" stroke-linecap="round" stroke-linejoin="round" stroke-width="2" points="19.8 35.4 19.87 34.02 19.87 35.39 19.8 35.4" class="colorStroke000000 svgStroke"></polygon><polygon fill="none" stroke="#4d7282" stroke-linecap="round" stroke-linejoin="round" stroke-width="2" points="44.2 35.4 44.13 35.39 44.13 34.02 44.2 35.4" class="colorStroke000000 svgStroke"></polygon></svg>