<svg xmlns="http://www.w3.org/2000/svg" viewBox="0 0 50 50" id="suv"><path d="M46.3 21.2c-.3-.2-.6-.3-1-.3l-8.5-1c-.2 0-.6-.1-.9-.4L31 16.2c-1.1-.8-2.4-1.2-3.8-1.2H7.1c-1 0-1.9.5-2.4 1.4l-2.5 4.1c-.6.9-.4 1-1.2 7.5-.2 1.5 1 2.8 2.5 2.8H7c.3 2.4 2.3 4.2 4.8 4.2s4.5-1.9 4.8-4.2h19.3c.3 2.4 2.3 4.2 4.8 4.2s4.5-1.9 4.8-4.2h.7c.8 0 1.6-.3 2.1-1 .5-.6.8-1.4.7-2.2-.3-2.3-.8-5.2-2.7-6.4zm-16.5-3.4 4.1 2.9-1.1.5c-.4.2-.8.2-1.2.2l-7.9-.7V17h3.4c1 0 2 .3 2.7.8zm-19.3.2.1-1h3.9v2.9l-2.8-.3c-.7-.1-1.3-.8-1.2-1.6zm6.1-1h5.2v3.5l-5.2-.5v-3zm-4.9 16c-1.6 0-2.9-1.3-2.9-2.9 0-1.6 1.3-2.9 2.9-2.9 1.6 0 2.9 1.3 2.9 2.9 0 1.6-1.3 2.9-2.9 2.9zm28.9 0c-1.6 0-2.9-1.3-2.9-2.9 0-1.6 1.3-2.9 2.9-2.9 1.6 0 2.9 1.3 2.9 2.9 0 1.6-1.3 2.9-2.9 2.9zm6.2-4.5c-.2.2-.4.3-.6.3h-.9c-.6-2-2.4-3.5-4.6-3.5-2.2 0-4 1.5-4.6 3.5H16.4c-.6-2-2.4-3.5-4.6-3.5-2.2 0-4 1.5-4.6 3.5H3.5c-.3 0-.5-.3-.5-.5.2-1.2.3-2.2.4-3h1.2c.6 0 1-.4 1-1s-.4-1-1-1h-1c.2-1.4.2-1.5.3-1.7l2.5-4.1c.1-.4.4-.5.7-.5h1.6l-.1.7c-.3 1.9 1.1 3.7 3.1 3.9 15.1 1.4 20 1.8 20.3 1.8.6 0 1.2-.1 1.8-.4l2.6-1.2c.3.1.3 0 8.8 1h.2c.3.2.6.6.9 1.1l-1.5-.2c-.5-.1-1.1.3-1.1.8-.1.5.3 1.1.8 1.1l2.5.4c.1.5.2 1.1.2 1.7l-.4.8z"></path><path d="M26 23.2h-1c-.6 0-1 .4-1 1s.4 1 1 1h1c.6 0 1-.4 1-1s-.5-1-1-1zm-8.8-.3h-.8c-.6 0-1 .4-1 1s.4 1 1 1h.8c.6 0 1-.4 1-1s-.4-1-1-1z"></path></svg>